# xmcd
#
# Track frame offsets:
#	150
#	17157
#	33760
#	54427
#	81045
#	100380
#	121990
#	143050
#	167450
#	200762
#	227337
#	244190
#	263035
#	284670
#	302685
#	322485
#
# Disc length: 4376 seconds
#
# Revision: 1
# Processed by: cddbd v1.5PL3 Copyright (c) Steve Scherf et al.
# Submitted via: CDex 1.50Beta5
#
DISCID=dc111610
DTITLE=Dreams Come True - DREAMS COME TRUE GREATEST HITS “THE SOUL” Disc 2
DYEAR=2000
DGENRE=Pop
TTITLE0=LOVE LOVE LOVE
TTITLE1=すき
TTITLE2=愛してる 愛してた
TTITLE3=悲しいKiss
TTITLE4=三日月
TTITLE5=WINTER SONG
TTITLE6=signs of LOVE,The
TTITLE7=未来予想図
TTITLE8=未来予想図II
TTITLE9=星空が映る海
TTITLE10=サンキュ.
TTITLE11=琥珀の月
TTITLE12=LOVE GOES ON…
TTITLE13=眼鏡越しの空
TTITLE14=時間旅行
TTITLE15=HAPPY HAPPY BIRTHDAY
EXTD=
EXTT0=
EXTT1=
EXTT2=
EXTT3=
EXTT4=
EXTT5=
EXTT6=
EXTT7=
EXTT8=
EXTT9=
EXTT10=
EXTT11=
EXTT12=
EXTT13=
EXTT14=
EXTT15=
PLAYORDER=
